<?xml version="1.0" encoding="utf-8" standalone="no"?>
<!DOCTYPE svg PUBLIC "-//W3C//DTD SVG 1.1//EN"
  "http://www.w3.org/Graphics/SVG/1.1/DTD/svg11.dtd">
<svg xmlns:xlink="http://www.w3.org/1999/xlink" width="861.845047pt" height="568.586109pt" viewBox="0 0 861.845047 568.586109" xmlns="http://www.w3.org/2000/svg" version="1.1">
 <metadata>
  <rdf:RDF xmlns:dc="http://purl.org/dc/elements/1.1/" xmlns:cc="http://creativecommons.org/ns#" xmlns:rdf="http://www.w3.org/1999/02/22-rdf-syntax-ns#">
   <cc:Work>
    <dc:type rdf:resource="http://purl.org/dc/dcmitype/StillImage"/>
    <dc:date>2026-09-23T17:37:05.676775</dc:date>
    <dc:format>image/svg+xml</dc:format>
    <dc:creator>
     <cc:Agent>
      <dc:title>Matplotlib v3.11.1, https://matplotlib.org/</dc:title>
     </cc:Agent>
    </dc:creator>
   </cc:Work>
  </rdf:RDF>
 </metadata>
 <defs>
  <style type="text/css">*{stroke-linejoin: round; stroke-linecap: butt}</style>
 </defs>
 <g id="figure_1">
  <g id="patch_1">
   <path d="M 0 568.586109
L 861.845047 568.586109
L 861.845047 0
L 0 0
z
" style="fill: #ffffff"/>
  </g>
  <g id="axes_1">
   <g id="patch_2">
    <path d="M 59.693047 290.137846
L 421.034865 290.137846
L 421.034865 131.184
L 59.693047 131.184
z
" style="fill: #f3f6f5"/>
   </g>
   <g id="matplotlib.axis_1">
    <g id="xtick_1">
     <g id="line2d_1"/>
    </g>
    <g id="xtick_2">
     <g id="line2d_2"/>
    </g>
    <g id="xtick_3">
     <g id="line2d_3"/>
    </g>
    <g id="xtick_4">
     <g id="line2d_4"/>
    </g>
    <g id="xtick_5">
     <g id="line2d_5"/>
    </g>
    <g id="xtick_6">
     <g id="line2d_6"/>
    </g>
   </g>
   <g id="matplotlib.axis_2">
    <g id="ytick_1">
     <g id="line2d_7">
      <path d="M 59.693047 290.137846
L 421.034865 290.137846
" clip-path="url(#p37515a360e)" style="fill: none; stroke: #ffffff; stroke-width: 1.5; stroke-linecap: square"/>
     </g>
     <g id="line2d_8"/>
     <g id="text_1">
      <text style="font-size: 11px; font-family: 'DejaVu Sans'; text-anchor: end; fill: #586c74" x="53.693047" y="294.316557" transform="rotate(-0 53.693047 294.316557)">0.94</text>
     </g>
    </g>
    <g id="ytick_2">
     <g id="line2d_9">
      <path d="M 59.693047 238.862412
L 421.034865 238.862412
" clip-path="url(#p37515a360e)" style="fill: none; stroke: #ffffff; stroke-width: 1.5; stroke-linecap: square"/>
     </g>
     <g id="line2d_10"/>
     <g id="text_2">
      <text style="font-size: 11px; font-family: 'DejaVu Sans'; text-anchor: end; fill: #586c74" x="53.693047" y="243.041123" transform="rotate(-0 53.693047 243.041123)">0.96</text>
     </g>
    </g>
    <g id="ytick_3">
     <g id="line2d_11">
      <path d="M 59.693047 187.586978
L 421.034865 187.586978
" clip-path="url(#p37515a360e)" style="fill: none; stroke: #ffffff; stroke-width: 1.5; stroke-linecap: square"/>
     </g>
     <g id="line2d_12"/>
     <g id="text_3">
      <text style="font-size: 11px; font-family: 'DejaVu Sans'; text-anchor: end; fill: #586c74" x="53.693047" y="191.765689" transform="rotate(-0 53.693047 191.765689)">0.98</text>
     </g>
    </g>
    <g id="ytick_4">
     <g id="line2d_13">
      <path d="M 59.693047 136.311543
L 421.034865 136.311543
" clip-path="url(#p37515a360e)" style="fill: none; stroke: #ffffff; stroke-width: 1.5; stroke-linecap: square"/>
     </g>
     <g id="line2d_14"/>
     <g id="text_4">
      <text style="font-size: 11px; font-family: 'DejaVu Sans'; text-anchor: end; fill: #586c74" x="53.693047" y="140.490254" transform="rotate(-0 53.693047 140.490254)">1.00</text>
     </g>
    </g>
    <g id="text_5">
     <text style="font-size: 11px; font-family: 'DejaVu Sans'; text-anchor: middle; fill: #20343f" x="15.558281" y="210.660923" transform="rotate(-90 15.558281 210.660923)">Response distance</text>
    </g>
   </g>
   <g id="FillBetweenPolyCollection_1">
    <defs>
     <path id="ma59316fd45" d="M 74.441693 -385.98332
L 74.441693 -335.965736
L 111.313307 -321.448071
L 185.056535 -342.301045
L 258.799763 -329.209275
L 332.542991 -330.073125
L 406.286219 -332.870209
L 406.286219 -366.844904
L 406.286219 -366.844904
L 332.542991 -372.235525
L 258.799763 -382.641764
L 185.056535 -363.318598
L 111.313307 -361.316141
L 74.441693 -385.98332
z
"/>
    </defs>
    <g clip-path="url(#p37515a360e)">
     <use xlink:href="#ma59316fd45" x="0" y="568.586109" style="fill: #b65b43; fill-opacity: 0.15"/>
    </g>
   </g>
   <g id="FillBetweenPolyCollection_2">
    <defs>
     <path id="m336a444571" d="M 74.441693 -414.301194
L 74.441693 -406.715266
L 111.313307 -407.597912
L 185.056535 -407.715731
L 258.799763 -404.829099
L 332.542991 -402.484341
L 406.286219 -402.385318
L 406.286219 -410.858171
L 406.286219 -410.858171
L 332.542991 -409.585547
L 258.799763 -413.509319
L 185.056535 -414.049206
L 111.313307 -415.878527
L 74.441693 -414.301194
z
"/>
    </defs>
    <g clip-path="url(#p37515a360e)">
     <use xlink:href="#m336a444571" x="0" y="568.586109" style="fill: #c58a32; fill-opacity: 0.15"/>
    </g>
   </g>
   <g id="FillBetweenPolyCollection_3">
    <defs>
     <path id="m3dc99f8f40" d="M 74.441693 -414.555628
L 74.441693 -413.724174
L 111.313307 -411.698794
L 185.056535 -407.590425
L 258.799763 -400.004802
L 332.542991 -411.442374
L 406.286219 -415.907714
L 406.286219 -421.563465
L 406.286219 -421.563465
L 332.542991 -422.450085
L 258.799763 -421.45726
L 185.056535 -419.750495
L 111.313307 -423.385604
L 74.441693 -414.555628
z
"/>
    </defs>
    <g clip-path="url(#p37515a360e)">
     <use xlink:href="#m3dc99f8f40" x="0" y="568.586109" style="fill: #3c8590; fill-opacity: 0.15"/>
    </g>
   </g>
   <g id="FillBetweenPolyCollection_4">
    <defs>
     <path id="mf645de814b" d="M 74.441693 -414.555628
L 74.441693 -414.555628
L 111.313307 -424.675496
L 185.056535 -423.087925
L 258.799763 -424.528796
L 332.542991 -425.432072
L 406.286219 -423.68313
L 406.286219 -426.574958
L 406.286219 -426.574958
L 332.542991 -426.534921
L 258.799763 -427.771176
L 185.056535 -427.602012
L 111.313307 -426.748095
L 74.441693 -414.555628
z
"/>
    </defs>
    <g clip-path="url(#p37515a360e)">
     <use xlink:href="#mf645de814b" x="0" y="568.586109" style="fill: #325578; fill-opacity: 0.15"/>
    </g>
   </g>
   <g id="line2d_15">
    <path d="M 74.441693 201.319351
L 111.313307 225.28949
L 185.056535 218.064719
L 258.799763 216.00893
L 332.542991 217.184304
L 406.286219 213.696966
" clip-path="url(#p37515a360e)" style="fill: none; stroke: #b65b43; stroke-width: 2.3; stroke-linecap: square"/>
    <defs>
     <path id="mfa7e0ecd04" d="M 0 2.25
C 0.596707 2.25 1.169055 2.012926 1.59099 1.59099
C 2.012926 1.169055 2.25 0.596707 2.25 0
C 2.25 -0.596707 2.012926 -1.169055 1.59099 -1.59099
C 1.169055 -2.012926 0.596707 -2.25 0 -2.25
C -0.596707 -2.25 -1.169055 -2.012926 -1.59099 -1.59099
C -2.012926 -1.169055 -2.25 -0.596707 -2.25 0
C -2.25 0.596707 -2.012926 1.169055 -1.59099 1.59099
C -1.169055 2.012926 -0.596707 2.25 0 2.25
z
" style="stroke: #b65b43"/>
    </defs>
    <g clip-path="url(#p37515a360e)">
     <use xlink:href="#mfa7e0ecd04" x="74.441693" y="201.319351" style="fill: #b65b43; stroke: #b65b43"/>
     <use xlink:href="#mfa7e0ecd04" x="111.313307" y="225.28949" style="fill: #b65b43; stroke: #b65b43"/>
     <use xlink:href="#mfa7e0ecd04" x="185.056535" y="218.064719" style="fill: #b65b43; stroke: #b65b43"/>
     <use xlink:href="#mfa7e0ecd04" x="258.799763" y="216.00893" style="fill: #b65b43; stroke: #b65b43"/>
     <use xlink:href="#mfa7e0ecd04" x="332.542991" y="217.184304" style="fill: #b65b43; stroke: #b65b43"/>
     <use xlink:href="#mfa7e0ecd04" x="406.286219" y="213.696966" style="fill: #b65b43; stroke: #b65b43"/>
    </g>
   </g>
   <g id="line2d_16">
    <path d="M 74.441693 157.112836
L 111.313307 155.899076
L 185.056535 157.350643
L 258.799763 159.534276
L 332.542991 162.357643
L 406.286219 162.855049
" clip-path="url(#p37515a360e)" style="fill: none; stroke: #c58a32; stroke-width: 2.3; stroke-linecap: square"/>
    <defs>
     <path id="mcc084539fb" d="M 0 2.25
C 0.596707 2.25 1.169055 2.012926 1.59099 1.59099
C 2.012926 1.169055 2.25 0.596707 2.25 0
C 2.25 -0.596707 2.012926 -1.169055 1.59099 -1.59099
C 1.169055 -2.012926 0.596707 -2.25 0 -2.25
C -0.596707 -2.25 -1.169055 -2.012926 -1.59099 -1.59099
C -2.012926 -1.169055 -2.25 -0.596707 -2.25 0
C -2.25 0.596707 -2.012926 1.169055 -1.59099 1.59099
C -1.169055 2.012926 -0.596707 2.25 0 2.25
z
" style="stroke: #c58a32"/>
    </defs>
    <g clip-path="url(#p37515a360e)">
     <use xlink:href="#mcc084539fb" x="74.441693" y="157.112836" style="fill: #c58a32; stroke: #c58a32"/>
     <use xlink:href="#mcc084539fb" x="111.313307" y="155.899076" style="fill: #c58a32; stroke: #c58a32"/>
     <use xlink:href="#mcc084539fb" x="185.056535" y="157.350643" style="fill: #c58a32; stroke: #c58a32"/>
     <use xlink:href="#mcc084539fb" x="258.799763" y="159.534276" style="fill: #c58a32; stroke: #c58a32"/>
     <use xlink:href="#mcc084539fb" x="332.542991" y="162.357643" style="fill: #c58a32; stroke: #c58a32"/>
     <use xlink:href="#mcc084539fb" x="406.286219" y="162.855049" style="fill: #c58a32; stroke: #c58a32"/>
    </g>
   </g>
   <g id="line2d_17">
    <path d="M 74.441693 154.40854
L 111.313307 148.102633
L 185.056535 153.414463
L 258.799763 154.100653
L 332.542991 152.124296
L 406.286219 149.686628
" clip-path="url(#p37515a360e)" style="fill: none; stroke: #3c8590; stroke-width: 2.3; stroke-linecap: square"/>
    <defs>
     <path id="m7205d47fc9" d="M 0 2.25
C 0.596707 2.25 1.169055 2.012926 1.59099 1.59099
C 2.012926 1.169055 2.25 0.596707 2.25 0
C 2.25 -0.596707 2.012926 -1.169055 1.59099 -1.59099
C 1.169055 -2.012926 0.596707 -2.25 0 -2.25
C -0.596707 -2.25 -1.169055 -2.012926 -1.59099 -1.59099
C -2.012926 -1.169055 -2.25 -0.596707 -2.25 0
C -2.25 0.596707 -2.012926 1.169055 -1.59099 1.59099
C -1.169055 2.012926 -0.596707 2.25 0 2.25
z
" style="stroke: #3c8590"/>
    </defs>
    <g clip-path="url(#p37515a360e)">
     <use xlink:href="#m7205d47fc9" x="74.441693" y="154.40854" style="fill: #3c8590; stroke: #3c8590"/>
     <use xlink:href="#m7205d47fc9" x="111.313307" y="148.102633" style="fill: #3c8590; stroke: #3c8590"/>
     <use xlink:href="#m7205d47fc9" x="185.056535" y="153.414463" style="fill: #3c8590; stroke: #3c8590"/>
     <use xlink:href="#m7205d47fc9" x="258.799763" y="154.100653" style="fill: #3c8590; stroke: #3c8590"/>
     <use xlink:href="#m7205d47fc9" x="332.542991" y="152.124296" style="fill: #3c8590; stroke: #3c8590"/>
     <use xlink:href="#m7205d47fc9" x="406.286219" y="149.686628" style="fill: #3c8590; stroke: #3c8590"/>
    </g>
   </g>
   <g id="line2d_18">
    <path d="M 74.441693 154.030482
L 111.313307 142.359412
L 185.056535 142.751346
L 258.799763 142.174753
L 332.542991 142.736309
L 406.286219 143.141171
" clip-path="url(#p37515a360e)" style="fill: none; stroke: #325578; stroke-width: 2.3; stroke-linecap: square"/>
    <defs>
     <path id="m72b32fb57e" d="M 0 2.25
C 0.596707 2.25 1.169055 2.012926 1.59099 1.59099
C 2.012926 1.169055 2.25 0.596707 2.25 0
C 2.25 -0.596707 2.012926 -1.169055 1.59099 -1.59099
C 1.169055 -2.012926 0.596707 -2.25 0 -2.25
C -0.596707 -2.25 -1.169055 -2.012926 -1.59099 -1.59099
C -2.012926 -1.169055 -2.25 -0.596707 -2.25 0
C -2.25 0.596707 -2.012926 1.169055 -1.59099 1.59099
C -1.169055 2.012926 -0.596707 2.25 0 2.25
z
" style="stroke: #325578"/>
    </defs>
    <g clip-path="url(#p37515a360e)">
     <use xlink:href="#m72b32fb57e" x="74.441693" y="154.030482" style="fill: #325578; stroke: #325578"/>
     <use xlink:href="#m72b32fb57e" x="111.313307" y="142.359412" style="fill: #325578; stroke: #325578"/>
     <use xlink:href="#m72b32fb57e" x="185.056535" y="142.751346" style="fill: #325578; stroke: #325578"/>
     <use xlink:href="#m72b32fb57e" x="258.799763" y="142.174753" style="fill: #325578; stroke: #325578"/>
     <use xlink:href="#m72b32fb57e" x="332.542991" y="142.736309" style="fill: #325578; stroke: #325578"/>
     <use xlink:href="#m72b32fb57e" x="406.286219" y="143.141171" style="fill: #325578; stroke: #325578"/>
    </g>
   </g>
   <g id="text_6">
    <text style="font-weight: 700; font-size: 13.2px; font-family: 'DejaVu Sans'; text-anchor: start; fill: #20343f" x="59.693047" y="121.184" transform="rotate(-0 59.693047 121.184)">Pair ranking · Spearman ρ</text>
   </g>
  </g>
  <g id="axes_2">
   <g id="patch_3">
    <path d="M 493.303229 290.137846
L 854.645047 290.137846
L 854.645047 131.184
L 493.303229 131.184
z
" style="fill: #f3f6f5"/>
   </g>
   <g id="matplotlib.axis_3">
    <g id="xtick_7">
     <g id="line2d_19"/>
    </g>
    <g id="xtick_8">
     <g id="line2d_20"/>
    </g>
    <g id="xtick_9">
     <g id="line2d_21"/>
    </g>
    <g id="xtick_10">
     <g id="line2d_22"/>
    </g>
    <g id="xtick_11">
     <g id="line2d_23"/>
    </g>
    <g id="xtick_12">
     <g id="line2d_24"/>
    </g>
   </g>
   <g id="matplotlib.axis_4">
    <g id="ytick_5">
     <g id="line2d_25">
      <path d="M 493.303229 290.137846
L 854.645047 290.137846
" clip-path="url(#p402c4709bd)" style="fill: none; stroke: #ffffff; stroke-width: 1.5; stroke-linecap: square"/>
     </g>
     <g id="line2d_26"/>
     <g id="text_7">
      <text style="font-size: 11px; font-family: 'DejaVu Sans'; text-anchor: end; fill: #586c74" x="487.303229" y="294.316557" transform="rotate(-0 487.303229 294.316557)">75.0%</text>
     </g>
    </g>
    <g id="ytick_6">
     <g id="line2d_27">
      <path d="M 493.303229 259.569799
L 854.645047 259.569799
" clip-path="url(#p402c4709bd)" style="fill: none; stroke: #ffffff; stroke-width: 1.5; stroke-linecap: square"/>
     </g>
     <g id="line2d_28"/>
     <g id="text_8">
      <text style="font-size: 11px; font-family: 'DejaVu Sans'; text-anchor: end; fill: #586c74" x="487.303229" y="263.74851" transform="rotate(-0 487.303229 263.74851)">80.0%</text>
     </g>
    </g>
    <g id="ytick_7">
     <g id="line2d_29">
      <path d="M 493.303229 229.001751
L 854.645047 229.001751
" clip-path="url(#p402c4709bd)" style="fill: none; stroke: #ffffff; stroke-width: 1.5; stroke-linecap: square"/>
     </g>
     <g id="line2d_30"/>
     <g id="text_9">
      <text style="font-size: 11px; font-family: 'DejaVu Sans'; text-anchor: end; fill: #586c74" x="487.303229" y="233.180462" transform="rotate(-0 487.303229 233.180462)">85.0%</text>
     </g>
    </g>
    <g id="ytick_8">
     <g id="line2d_31">
      <path d="M 493.303229 198.433704
L 854.645047 198.433704
" clip-path="url(#p402c4709bd)" style="fill: none; stroke: #ffffff; stroke-width: 1.5; stroke-linecap: square"/>
     </g>
     <g id="line2d_32"/>
     <g id="text_10">
      <text style="font-size: 11px; font-family: 'DejaVu Sans'; text-anchor: end; fill: #586c74" x="487.303229" y="202.612415" transform="rotate(-0 487.303229 202.612415)">90.0%</text>
     </g>
    </g>
    <g id="ytick_9">
     <g id="line2d_33">
      <path d="M 493.303229 167.865657
L 854.645047 167.865657
" clip-path="url(#p402c4709bd)" style="fill: none; stroke: #ffffff; stroke-width: 1.5; stroke-linecap: square"/>
     </g>
     <g id="line2d_34"/>
     <g id="text_11">
      <text style="font-size: 11px; font-family: 'DejaVu Sans'; text-anchor: end; fill: #586c74" x="487.303229" y="172.044368" transform="rotate(-0 487.303229 172.044368)">95.0%</text>
     </g>
    </g>
    <g id="ytick_10">
     <g id="line2d_35">
      <path d="M 493.303229 137.297609
L 854.645047 137.297609
" clip-path="url(#p402c4709bd)" style="fill: none; stroke: #ffffff; stroke-width: 1.5; stroke-linecap: square"/>
     </g>
     <g id="line2d_36"/>
     <g id="text_12">
      <text style="font-size: 11px; font-family: 'DejaVu Sans'; text-anchor: end; fill: #586c74" x="487.303229" y="141.47632" transform="rotate(-0 487.303229 141.47632)">100.0%</text>
     </g>
    </g>
   </g>
   <g id="FillBetweenPolyCollection_5">
    <defs>
     <path id="mc62c91aa80" d="M 508.051874 -319.534348
L 508.051874 -293.239254
L 544.923488 -293.239254
L 618.666717 -339.255669
L 692.409945 -339.255669
L 766.153173 -312.960575
L 839.896401 -326.108122
L 839.896401 -365.550764
L 839.896401 -365.550764
L 766.153173 -378.698311
L 692.409945 -372.124537
L 618.666717 -378.698311
L 544.923488 -326.108122
L 508.051874 -319.534348
z
"/>
    </defs>
    <g clip-path="url(#p402c4709bd)">
     <use xlink:href="#mc62c91aa80" x="0" y="568.586109" style="fill: #b65b43; fill-opacity: 0.15"/>
    </g>
   </g>
   <g id="FillBetweenPolyCollection_6">
    <defs>
     <path id="m79d1300b93" d="M 508.051874 -358.97699
L 508.051874 -326.108122
L 544.923488 -332.681896
L 618.666717 -385.272085
L 692.409945 -352.403216
L 766.153173 -365.550764
L 839.896401 -378.698311
L 839.896401 -398.419632
L 839.896401 -398.419632
L 766.153173 -391.845858
L 692.409945 -411.567179
L 618.666717 -404.993405
L 544.923488 -372.124537
L 508.051874 -358.97699
z
"/>
    </defs>
    <g clip-path="url(#p402c4709bd)">
     <use xlink:href="#m79d1300b93" x="0" y="568.586109" style="fill: #c58a32; fill-opacity: 0.15"/>
    </g>
   </g>
   <g id="FillBetweenPolyCollection_7">
    <defs>
     <path id="mef60a90580" d="M 508.051874 -345.829443
L 508.051874 -326.108122
L 544.923488 -345.829443
L 618.666717 -391.845858
L 692.409945 -372.124537
L 766.153173 -385.272085
L 839.896401 -398.419632
L 839.896401 -411.567179
L 839.896401 -411.567179
L 766.153173 -411.567179
L 692.409945 -404.993405
L 618.666717 -404.993405
L 544.923488 -378.698311
L 508.051874 -345.829443
z
"/>
    </defs>
    <g clip-path="url(#p402c4709bd)">
     <use xlink:href="#mef60a90580" x="0" y="568.586109" style="fill: #3c8590; fill-opacity: 0.15"/>
    </g>
   </g>
   <g id="FillBetweenPolyCollection_8">
    <defs>
     <path id="m4198619a63" d="M 508.051874 -358.97699
L 508.051874 -326.108122
L 544.923488 -345.829443
L 618.666717 -404.993405
L 692.409945 -378.698311
L 766.153173 -385.272085
L 839.896401 -391.845858
L 839.896401 -424.714726
L 839.896401 -424.714726
L 766.153173 -404.993405
L 692.409945 -418.140953
L 618.666717 -431.2885
L 544.923488 -372.124537
L 508.051874 -358.97699
z
"/>
    </defs>
    <g clip-path="url(#p402c4709bd)">
     <use xlink:href="#m4198619a63" x="0" y="568.586109" style="fill: #325578; fill-opacity: 0.15"/>
    </g>
   </g>
   <g id="line2d_37">
    <path d="M 508.051874 260.884554
L 544.923488 256.940289
L 618.666717 214.868138
L 692.409945 212.238629
L 766.153173 230.645195
L 839.896401 222.756667
" clip-path="url(#p402c4709bd)" style="fill: none; stroke: #b65b43; stroke-width: 2.3; stroke-linecap: square"/>
    <g clip-path="url(#p402c4709bd)">
     <use xlink:href="#mfa7e0ecd04" x="508.051874" y="260.884554" style="fill: #b65b43; stroke: #b65b43"/>
     <use xlink:href="#mfa7e0ecd04" x="544.923488" y="256.940289" style="fill: #b65b43; stroke: #b65b43"/>
     <use xlink:href="#mfa7e0ecd04" x="618.666717" y="214.868138" style="fill: #b65b43; stroke: #b65b43"/>
     <use xlink:href="#mfa7e0ecd04" x="692.409945" y="212.238629" style="fill: #b65b43; stroke: #b65b43"/>
     <use xlink:href="#mfa7e0ecd04" x="766.153173" y="230.645195" style="fill: #b65b43; stroke: #b65b43"/>
     <use xlink:href="#mfa7e0ecd04" x="839.896401" y="222.756667" style="fill: #b65b43; stroke: #b65b43"/>
    </g>
   </g>
   <g id="line2d_38">
    <path d="M 508.051874 231.95995
L 544.923488 217.497648
L 618.666717 170.166478
L 692.409945 185.943534
L 766.153173 189.887798
L 839.896401 176.740251
" clip-path="url(#p402c4709bd)" style="fill: none; stroke: #c58a32; stroke-width: 2.3; stroke-linecap: square"/>
    <g clip-path="url(#p402c4709bd)">
     <use xlink:href="#mcc084539fb" x="508.051874" y="231.95995" style="fill: #c58a32; stroke: #c58a32"/>
     <use xlink:href="#mcc084539fb" x="544.923488" y="217.497648" style="fill: #c58a32; stroke: #c58a32"/>
     <use xlink:href="#mcc084539fb" x="618.666717" y="170.166478" style="fill: #c58a32; stroke: #c58a32"/>
     <use xlink:href="#mcc084539fb" x="692.409945" y="185.943534" style="fill: #c58a32; stroke: #c58a32"/>
     <use xlink:href="#mcc084539fb" x="766.153173" y="189.887798" style="fill: #c58a32; stroke: #c58a32"/>
     <use xlink:href="#mcc084539fb" x="839.896401" y="176.740251" style="fill: #c58a32; stroke: #c58a32"/>
    </g>
   </g>
   <g id="line2d_39">
    <path d="M 508.051874 230.645195
L 544.923488 209.609119
L 618.666717 171.481232
L 692.409945 178.055006
L 766.153173 167.536968
L 839.896401 166.222213
" clip-path="url(#p402c4709bd)" style="fill: none; stroke: #3c8590; stroke-width: 2.3; stroke-linecap: square"/>
    <g clip-path="url(#p402c4709bd)">
     <use xlink:href="#m7205d47fc9" x="508.051874" y="230.645195" style="fill: #3c8590; stroke: #3c8590"/>
     <use xlink:href="#m7205d47fc9" x="544.923488" y="209.609119" style="fill: #3c8590; stroke: #3c8590"/>
     <use xlink:href="#m7205d47fc9" x="618.666717" y="171.481232" style="fill: #3c8590; stroke: #3c8590"/>
     <use xlink:href="#m7205d47fc9" x="692.409945" y="178.055006" style="fill: #3c8590; stroke: #3c8590"/>
     <use xlink:href="#m7205d47fc9" x="766.153173" y="167.536968" style="fill: #3c8590; stroke: #3c8590"/>
     <use xlink:href="#m7205d47fc9" x="839.896401" y="166.222213" style="fill: #3c8590; stroke: #3c8590"/>
    </g>
   </g>
   <g id="line2d_40">
    <path d="M 508.051874 229.33044
L 544.923488 205.664855
L 618.666717 150.445157
L 692.409945 166.222213
L 766.153173 168.851723
L 839.896401 158.333685
" clip-path="url(#p402c4709bd)" style="fill: none; stroke: #325578; stroke-width: 2.3; stroke-linecap: square"/>
    <g clip-path="url(#p402c4709bd)">
     <use xlink:href="#m72b32fb57e" x="508.051874" y="229.33044" style="fill: #325578; stroke: #325578"/>
     <use xlink:href="#m72b32fb57e" x="544.923488" y="205.664855" style="fill: #325578; stroke: #325578"/>
     <use xlink:href="#m72b32fb57e" x="618.666717" y="150.445157" style="fill: #325578; stroke: #325578"/>
     <use xlink:href="#m72b32fb57e" x="692.409945" y="166.222213" style="fill: #325578; stroke: #325578"/>
     <use xlink:href="#m72b32fb57e" x="766.153173" y="168.851723" style="fill: #325578; stroke: #325578"/>
     <use xlink:href="#m72b32fb57e" x="839.896401" y="158.333685" style="fill: #325578; stroke: #325578"/>
    </g>
   </g>
   <g id="text_13">
    <text style="font-weight: 700; font-size: 13.2px; font-family: 'DejaVu Sans'; text-anchor: start; fill: #20343f" x="493.303229" y="121.184" transform="rotate(-0 493.303229 121.184)">Three nearest neighbors retained</text>
   </g>
  </g>
  <g id="axes_3">
   <g id="patch_4">
    <path d="M 59.693047 503.136
L 421.034865 503.136
L 421.034865 344.182154
L 59.693047 344.182154
z
" style="fill: #f3f6f5"/>
   </g>
   <g id="matplotlib.axis_5">
    <g id="xtick_13">
     <g id="line2d_41"/>
     <g id="text_14">
      <text style="font-size: 11px; font-family: 'DejaVu Sans'; text-anchor: middle; fill: #586c74" x="74.441693" y="517.493422" transform="rotate(-0 74.441693 517.493422)">5</text>
     </g>
    </g>
    <g id="xtick_14">
     <g id="line2d_42"/>
     <g id="text_15">
      <text style="font-size: 11px; font-family: 'DejaVu Sans'; text-anchor: middle; fill: #586c74" x="111.313307" y="517.493422" transform="rotate(-0 111.313307 517.493422)">10</text>
     </g>
    </g>
    <g id="xtick_15">
     <g id="line2d_43"/>
     <g id="text_16">
      <text style="font-size: 11px; font-family: 'DejaVu Sans'; text-anchor: middle; fill: #586c74" x="185.056535" y="517.493422" transform="rotate(-0 185.056535 517.493422)">20</text>
     </g>
    </g>
    <g id="xtick_16">
     <g id="line2d_44"/>
     <g id="text_17">
      <text style="font-size: 11px; font-family: 'DejaVu Sans'; text-anchor: middle; fill: #586c74" x="258.799763" y="517.493422" transform="rotate(-0 258.799763 517.493422)">30</text>
     </g>
    </g>
    <g id="xtick_17">
     <g id="line2d_45"/>
     <g id="text_18">
      <text style="font-size: 11px; font-family: 'DejaVu Sans'; text-anchor: middle; fill: #586c74" x="332.542991" y="517.493422" transform="rotate(-0 332.542991 517.493422)">40</text>
     </g>
    </g>
    <g id="xtick_18">
     <g id="line2d_46"/>
     <g id="text_19">
      <text style="font-size: 11px; font-family: 'DejaVu Sans'; text-anchor: middle; fill: #586c74" x="406.286219" y="517.493422" transform="rotate(-0 406.286219 517.493422)">50</text>
     </g>
    </g>
    <g id="text_20">
     <text style="font-size: 11px; font-family: 'DejaVu Sans'; text-anchor: middle; fill: #20343f" x="240.363956" y="537.494281" transform="rotate(-0 240.363956 537.494281)">Facts in the bundle</text>
    </g>
   </g>
   <g id="matplotlib.axis_6">
    <g id="ytick_11">
     <g id="line2d_47">
      <path d="M 59.693047 503.136
L 421.034865 503.136
" clip-path="url(#pf03879bf5d)" style="fill: none; stroke: #ffffff; stroke-width: 1.5; stroke-linecap: square"/>
     </g>
     <g id="line2d_48"/>
     <g id="text_21">
      <text style="font-size: 11px; font-family: 'DejaVu Sans'; text-anchor: end; fill: #586c74" x="53.693047" y="507.314711" transform="rotate(-0 53.693047 507.314711)">0.94</text>
     </g>
    </g>
    <g id="ytick_12">
     <g id="line2d_49">
      <path d="M 59.693047 451.860566
L 421.034865 451.860566
" clip-path="url(#pf03879bf5d)" style="fill: none; stroke: #ffffff; stroke-width: 1.5; stroke-linecap: square"/>
     </g>
     <g id="line2d_50"/>
     <g id="text_22">
      <text style="font-size: 11px; font-family: 'DejaVu Sans'; text-anchor: end; fill: #586c74" x="53.693047" y="456.039277" transform="rotate(-0 53.693047 456.039277)">0.96</text>
     </g>
    </g>
    <g id="ytick_13">
     <g id="line2d_51">
      <path d="M 59.693047 400.585132
L 421.034865 400.585132
" clip-path="url(#pf03879bf5d)" style="fill: none; stroke: #ffffff; stroke-width: 1.5; stroke-linecap: square"/>
     </g>
     <g id="line2d_52"/>
     <g id="text_23">
      <text style="font-size: 11px; font-family: 'DejaVu Sans'; text-anchor: end; fill: #586c74" x="53.693047" y="404.763842" transform="rotate(-0 53.693047 404.763842)">0.98</text>
     </g>
    </g>
    <g id="ytick_14">
     <g id="line2d_53">
      <path d="M 59.693047 349.309697
L 421.034865 349.309697
" clip-path="url(#pf03879bf5d)" style="fill: none; stroke: #ffffff; stroke-width: 1.5; stroke-linecap: square"/>
     </g>
     <g id="line2d_54"/>
     <g id="text_24">
      <text style="font-size: 11px; font-family: 'DejaVu Sans'; text-anchor: end; fill: #586c74" x="53.693047" y="353.488408" transform="rotate(-0 53.693047 353.488408)">1.00</text>
     </g>
    </g>
    <g id="text_25">
     <text style="font-size: 11px; font-family: 'DejaVu Sans'; text-anchor: middle; fill: #20343f" x="15.558281" y="423.659077" transform="rotate(-90 15.558281 423.659077)">Oracle level similarity</text>
    </g>
   </g>
   <g id="FillBetweenPolyCollection_9">
    <defs>
     <path id="m6b7fb81d95" d="M 74.441693 -176.524155
L 74.441693 -132.60227
L 111.313307 -121.157668
L 185.056535 -141.771032
L 258.799763 -115.973039
L 332.542991 -120.702439
L 406.286219 -140.581996
L 406.286219 -161.157157
L 406.286219 -161.157157
L 332.542991 -169.954432
L 258.799763 -171.425712
L 185.056535 -150.34413
L 111.313307 -155.53365
L 74.441693 -176.524155
z
"/>
    </defs>
    <g clip-path="url(#pf03879bf5d)">
     <use xlink:href="#m6b7fb81d95" x="0" y="568.586109" style="fill: #b65b43; fill-opacity: 0.15"/>
    </g>
   </g>
   <g id="FillBetweenPolyCollection_10">
    <defs>
     <path id="mfbf82fd897" d="M 74.441693 -200.603922
L 74.441693 -183.318972
L 111.313307 -191.651696
L 185.056535 -196.630181
L 258.799763 -192.981166
L 332.542991 -190.097896
L 406.286219 -187.534769
L 406.286219 -199.153271
L 406.286219 -199.153271
L 332.542991 -198.795231
L 258.799763 -201.215632
L 185.056535 -200.887084
L 111.313307 -201.729541
L 74.441693 -200.603922
z
"/>
    </defs>
    <g clip-path="url(#pf03879bf5d)">
     <use xlink:href="#mfbf82fd897" x="0" y="568.586109" style="fill: #c58a32; fill-opacity: 0.15"/>
    </g>
   </g>
   <g id="FillBetweenPolyCollection_11">
    <defs>
     <path id="meaadff6f68" d="M 74.441693 -209.927484
L 74.441693 -182.772667
L 111.313307 -205.226659
L 185.056535 -197.676642
L 258.799763 -192.029449
L 332.542991 -202.240852
L 406.286219 -205.792983
L 406.286219 -208.241654
L 406.286219 -208.241654
L 332.542991 -208.20773
L 258.799763 -207.593117
L 185.056535 -205.863277
L 111.313307 -209.002967
L 74.441693 -209.927484
z
"/>
    </defs>
    <g clip-path="url(#pf03879bf5d)">
     <use xlink:href="#meaadff6f68" x="0" y="568.586109" style="fill: #3c8590; fill-opacity: 0.15"/>
    </g>
   </g>
   <g id="FillBetweenPolyCollection_12">
    <defs>
     <path id="mc02e95642b" d="M 74.441693 -205.497138
L 74.441693 -185.081819
L 111.313307 -210.356123
L 185.056535 -209.805692
L 258.799763 -211.522237
L 332.542991 -212.050052
L 406.286219 -211.199802
L 406.286219 -213.743675
L 406.286219 -213.743675
L 332.542991 -213.516749
L 258.799763 -214.148782
L 185.056535 -214.252389
L 111.313307 -215.482837
L 74.441693 -205.497138
z
"/>
    </defs>
    <g clip-path="url(#pf03879bf5d)">
     <use xlink:href="#mc02e95642b" x="0" y="568.586109" style="fill: #325578; fill-opacity: 0.15"/>
    </g>
   </g>
   <g id="line2d_55">
    <path d="M 74.441693 411.516692
L 111.313307 427.189591
L 185.056535 422.990939
L 258.799763 428.187794
L 332.542991 426.057004
L 406.286219 417.270763
" clip-path="url(#pf03879bf5d)" style="fill: none; stroke: #b65b43; stroke-width: 2.3; stroke-linecap: square"/>
    <g clip-path="url(#pf03879bf5d)">
     <use xlink:href="#mfa7e0ecd04" x="74.441693" y="411.516692" style="fill: #b65b43; stroke: #b65b43"/>
     <use xlink:href="#mfa7e0ecd04" x="111.313307" y="427.189591" style="fill: #b65b43; stroke: #b65b43"/>
     <use xlink:href="#mfa7e0ecd04" x="185.056535" y="422.990939" style="fill: #b65b43; stroke: #b65b43"/>
     <use xlink:href="#mfa7e0ecd04" x="258.799763" y="428.187794" style="fill: #b65b43; stroke: #b65b43"/>
     <use xlink:href="#mfa7e0ecd04" x="332.542991" y="426.057004" style="fill: #b65b43; stroke: #b65b43"/>
     <use xlink:href="#mfa7e0ecd04" x="406.286219" y="417.270763" style="fill: #b65b43; stroke: #b65b43"/>
    </g>
   </g>
   <g id="line2d_56">
    <path d="M 74.441693 374.105973
L 111.313307 369.910133
L 185.056535 369.837119
L 258.799763 371.656018
L 332.542991 374.122232
L 406.286219 375.469459
" clip-path="url(#pf03879bf5d)" style="fill: none; stroke: #c58a32; stroke-width: 2.3; stroke-linecap: square"/>
    <g clip-path="url(#pf03879bf5d)">
     <use xlink:href="#mcc084539fb" x="74.441693" y="374.105973" style="fill: #c58a32; stroke: #c58a32"/>
     <use xlink:href="#mcc084539fb" x="111.313307" y="369.910133" style="fill: #c58a32; stroke: #c58a32"/>
     <use xlink:href="#mcc084539fb" x="185.056535" y="369.837119" style="fill: #c58a32; stroke: #c58a32"/>
     <use xlink:href="#mcc084539fb" x="258.799763" y="371.656018" style="fill: #c58a32; stroke: #c58a32"/>
     <use xlink:href="#mcc084539fb" x="332.542991" y="374.122232" style="fill: #c58a32; stroke: #c58a32"/>
     <use xlink:href="#mcc084539fb" x="406.286219" y="375.469459" style="fill: #c58a32; stroke: #c58a32"/>
    </g>
   </g>
   <g id="line2d_57">
    <path d="M 74.441693 374.836967
L 111.313307 362.012284
L 185.056535 365.187518
L 258.799763 365.471841
L 332.542991 364.047107
L 406.286219 361.688901
" clip-path="url(#pf03879bf5d)" style="fill: none; stroke: #3c8590; stroke-width: 2.3; stroke-linecap: square"/>
    <g clip-path="url(#pf03879bf5d)">
     <use xlink:href="#m7205d47fc9" x="74.441693" y="374.836967" style="fill: #3c8590; stroke: #3c8590"/>
     <use xlink:href="#m7205d47fc9" x="111.313307" y="362.012284" style="fill: #3c8590; stroke: #3c8590"/>
     <use xlink:href="#m7205d47fc9" x="185.056535" y="365.187518" style="fill: #3c8590; stroke: #3c8590"/>
     <use xlink:href="#m7205d47fc9" x="258.799763" y="365.471841" style="fill: #3c8590; stroke: #3c8590"/>
     <use xlink:href="#m7205d47fc9" x="332.542991" y="364.047107" style="fill: #3c8590; stroke: #3c8590"/>
     <use xlink:href="#m7205d47fc9" x="406.286219" y="361.688901" style="fill: #3c8590; stroke: #3c8590"/>
    </g>
   </g>
   <g id="line2d_58">
    <path d="M 74.441693 370.829607
L 111.313307 356.591987
L 185.056535 356.233152
L 258.799763 355.140602
L 332.542991 355.62187
L 406.286219 355.778228
" clip-path="url(#pf03879bf5d)" style="fill: none; stroke: #325578; stroke-width: 2.3; stroke-linecap: square"/>
    <g clip-path="url(#pf03879bf5d)">
     <use xlink:href="#m72b32fb57e" x="74.441693" y="370.829607" style="fill: #325578; stroke: #325578"/>
     <use xlink:href="#m72b32fb57e" x="111.313307" y="356.591987" style="fill: #325578; stroke: #325578"/>
     <use xlink:href="#m72b32fb57e" x="185.056535" y="356.233152" style="fill: #325578; stroke: #325578"/>
     <use xlink:href="#m72b32fb57e" x="258.799763" y="355.140602" style="fill: #325578; stroke: #325578"/>
     <use xlink:href="#m72b32fb57e" x="332.542991" y="355.62187" style="fill: #325578; stroke: #325578"/>
     <use xlink:href="#m72b32fb57e" x="406.286219" y="355.778228" style="fill: #325578; stroke: #325578"/>
    </g>
   </g>
  </g>
  <g id="axes_4">
   <g id="patch_5">
    <path d="M 493.303229 503.136
L 854.645047 503.136
L 854.645047 344.182154
L 493.303229 344.182154
z
" style="fill: #f3f6f5"/>
   </g>
   <g id="matplotlib.axis_7">
    <g id="xtick_19">
     <g id="line2d_59"/>
     <g id="text_26">
      <text style="font-size: 11px; font-family: 'DejaVu Sans'; text-anchor: middle; fill: #586c74" x="508.051874" y="517.493422" transform="rotate(-0 508.051874 517.493422)">5</text>
     </g>
    </g>
    <g id="xtick_20">
     <g id="line2d_60"/>
     <g id="text_27">
      <text style="font-size: 11px; font-family: 'DejaVu Sans'; text-anchor: middle; fill: #586c74" x="544.923488" y="517.493422" transform="rotate(-0 544.923488 517.493422)">10</text>
     </g>
    </g>
    <g id="xtick_21">
     <g id="line2d_61"/>
     <g id="text_28">
      <text style="font-size: 11px; font-family: 'DejaVu Sans'; text-anchor: middle; fill: #586c74" x="618.666717" y="517.493422" transform="rotate(-0 618.666717 517.493422)">20</text>
     </g>
    </g>
    <g id="xtick_22">
     <g id="line2d_62"/>
     <g id="text_29">
      <text style="font-size: 11px; font-family: 'DejaVu Sans'; text-anchor: middle; fill: #586c74" x="692.409945" y="517.493422" transform="rotate(-0 692.409945 517.493422)">30</text>
     </g>
    </g>
    <g id="xtick_23">
     <g id="line2d_63"/>
     <g id="text_30">
      <text style="font-size: 11px; font-family: 'DejaVu Sans'; text-anchor: middle; fill: #586c74" x="766.153173" y="517.493422" transform="rotate(-0 766.153173 517.493422)">40</text>
     </g>
    </g>
    <g id="xtick_24">
     <g id="line2d_64"/>
     <g id="text_31">
      <text style="font-size: 11px; font-family: 'DejaVu Sans'; text-anchor: middle; fill: #586c74" x="839.896401" y="517.493422" transform="rotate(-0 839.896401 517.493422)">50</text>
     </g>
    </g>
    <g id="text_32">
     <text style="font-size: 11px; font-family: 'DejaVu Sans'; text-anchor: middle; fill: #20343f" x="673.974138" y="537.494281" transform="rotate(-0 673.974138 537.494281)">Facts in the bundle</text>
    </g>
   </g>
   <g id="matplotlib.axis_8">
    <g id="ytick_15">
     <g id="line2d_65">
      <path d="M 493.303229 503.136
L 854.645047 503.136
" clip-path="url(#p79f80259de)" style="fill: none; stroke: #ffffff; stroke-width: 1.5; stroke-linecap: square"/>
     </g>
     <g id="line2d_66"/>
     <g id="text_33">
      <text style="font-size: 11px; font-family: 'DejaVu Sans'; text-anchor: end; fill: #586c74" x="487.303229" y="507.314711" transform="rotate(-0 487.303229 507.314711)">75.0%</text>
     </g>
    </g>
    <g id="ytick_16">
     <g id="line2d_67">
      <path d="M 493.303229 472.567953
L 854.645047 472.567953
" clip-path="url(#p79f80259de)" style="fill: none; stroke: #ffffff; stroke-width: 1.5; stroke-linecap: square"/>
     </g>
     <g id="line2d_68"/>
     <g id="text_34">
      <text style="font-size: 11px; font-family: 'DejaVu Sans'; text-anchor: end; fill: #586c74" x="487.303229" y="476.746664" transform="rotate(-0 487.303229 476.746664)">80.0%</text>
     </g>
    </g>
    <g id="ytick_17">
     <g id="line2d_69">
      <path d="M 493.303229 441.999905
L 854.645047 441.999905
" clip-path="url(#p79f80259de)" style="fill: none; stroke: #ffffff; stroke-width: 1.5; stroke-linecap: square"/>
     </g>
     <g id="line2d_70"/>
     <g id="text_35">
      <text style="font-size: 11px; font-family: 'DejaVu Sans'; text-anchor: end; fill: #586c74" x="487.303229" y="446.178616" transform="rotate(-0 487.303229 446.178616)">85.0%</text>
     </g>
    </g>
    <g id="ytick_18">
     <g id="line2d_71">
      <path d="M 493.303229 411.431858
L 854.645047 411.431858
" clip-path="url(#p79f80259de)" style="fill: none; stroke: #ffffff; stroke-width: 1.5; stroke-linecap: square"/>
     </g>
     <g id="line2d_72"/>
     <g id="text_36">
      <text style="font-size: 11px; font-family: 'DejaVu Sans'; text-anchor: end; fill: #586c74" x="487.303229" y="415.610569" transform="rotate(-0 487.303229 415.610569)">90.0%</text>
     </g>
    </g>
    <g id="ytick_19">
     <g id="line2d_73">
      <path d="M 493.303229 380.863811
L 854.645047 380.863811
" clip-path="url(#p79f80259de)" style="fill: none; stroke: #ffffff; stroke-width: 1.5; stroke-linecap: square"/>
     </g>
     <g id="line2d_74"/>
     <g id="text_37">
      <text style="font-size: 11px; font-family: 'DejaVu Sans'; text-anchor: end; fill: #586c74" x="487.303229" y="385.042522" transform="rotate(-0 487.303229 385.042522)">95.0%</text>
     </g>
    </g>
    <g id="ytick_20">
     <g id="line2d_75">
      <path d="M 493.303229 350.295763
L 854.645047 350.295763
" clip-path="url(#p79f80259de)" style="fill: none; stroke: #ffffff; stroke-width: 1.5; stroke-linecap: square"/>
     </g>
     <g id="line2d_76"/>
     <g id="text_38">
      <text style="font-size: 11px; font-family: 'DejaVu Sans'; text-anchor: end; fill: #586c74" x="487.303229" y="354.474474" transform="rotate(-0 487.303229 354.474474)">100.0%</text>
     </g>
    </g>
   </g>
   <g id="FillBetweenPolyCollection_13">
    <defs>
     <path id="m1625d7ad90" d="M 508.051874 -165.700157
L 508.051874 -119.683742
L 544.923488 -93.388647
L 618.666717 -106.536195
L 692.409945 -139.405063
L 766.153173 -86.814874
L 839.896401 -113.109968
L 839.896401 -145.978836
L 839.896401 -145.978836
L 766.153173 -185.421478
L 692.409945 -165.700157
L 618.666717 -145.978836
L 544.923488 -126.257515
L 508.051874 -165.700157
z
"/>
    </defs>
    <g clip-path="url(#p79f80259de)">
     <use xlink:href="#m1625d7ad90" x="0" y="568.586109" style="fill: #b65b43; fill-opacity: 0.15"/>
    </g>
   </g>
   <g id="FillBetweenPolyCollection_14">
    <defs>
     <path id="mb10dcd87e7" d="M 508.051874 -159.126383
L 508.051874 -126.257515
L 544.923488 -139.405063
L 618.666717 -172.273931
L 692.409945 -165.700157
L 766.153173 -152.55261
L 839.896401 -165.700157
L 839.896401 -191.995252
L 839.896401 -191.995252
L 766.153173 -178.847704
L 692.409945 -191.995252
L 618.666717 -198.569025
L 544.923488 -159.126383
L 508.051874 -159.126383
z
"/>
    </defs>
    <g clip-path="url(#p79f80259de)">
     <use xlink:href="#mb10dcd87e7" x="0" y="568.586109" style="fill: #c58a32; fill-opacity: 0.15"/>
    </g>
   </g>
   <g id="FillBetweenPolyCollection_15">
    <defs>
     <path id="md43dffdbd4" d="M 508.051874 -165.700157
L 508.051874 -119.683742
L 544.923488 -165.700157
L 618.666717 -178.847704
L 692.409945 -172.273931
L 766.153173 -178.847704
L 839.896401 -178.847704
L 839.896401 -205.142799
L 839.896401 -205.142799
L 766.153173 -198.569025
L 692.409945 -218.290346
L 618.666717 -198.569025
L 544.923488 -191.995252
L 508.051874 -165.700157
z
"/>
    </defs>
    <g clip-path="url(#p79f80259de)">
     <use xlink:href="#md43dffdbd4" x="0" y="568.586109" style="fill: #3c8590; fill-opacity: 0.15"/>
    </g>
   </g>
   <g id="FillBetweenPolyCollection_16">
    <defs>
     <path id="m3d3f88acf7" d="M 508.051874 -172.273931
L 508.051874 -132.831289
L 544.923488 -139.405063
L 618.666717 -178.847704
L 692.409945 -185.421478
L 766.153173 -172.273931
L 839.896401 -178.847704
L 839.896401 -218.290346
L 839.896401 -218.290346
L 766.153173 -198.569025
L 692.409945 -205.142799
L 618.666717 -205.142799
L 544.923488 -185.421478
L 508.051874 -172.273931
z
"/>
    </defs>
    <g clip-path="url(#p79f80259de)">
     <use xlink:href="#m3d3f88acf7" x="0" y="568.586109" style="fill: #325578; fill-opacity: 0.15"/>
    </g>
   </g>
   <g id="line2d_77">
    <path d="M 508.051874 433.125311
L 544.923488 454.161387
L 618.666717 434.440066
L 692.409945 413.40399
L 766.153173 443.643349
L 839.896401 434.440066
" clip-path="url(#p79f80259de)" style="fill: none; stroke: #b65b43; stroke-width: 2.3; stroke-linecap: square"/>
    <g clip-path="url(#p79f80259de)">
     <use xlink:href="#mfa7e0ecd04" x="508.051874" y="433.125311" style="fill: #b65b43; stroke: #b65b43"/>
     <use xlink:href="#mfa7e0ecd04" x="544.923488" y="454.161387" style="fill: #b65b43; stroke: #b65b43"/>
     <use xlink:href="#mfa7e0ecd04" x="618.666717" y="434.440066" style="fill: #b65b43; stroke: #b65b43"/>
     <use xlink:href="#mfa7e0ecd04" x="692.409945" y="413.40399" style="fill: #b65b43; stroke: #b65b43"/>
     <use xlink:href="#mfa7e0ecd04" x="766.153173" y="443.643349" style="fill: #b65b43; stroke: #b65b43"/>
     <use xlink:href="#mfa7e0ecd04" x="839.896401" y="434.440066" style="fill: #b65b43; stroke: #b65b43"/>
    </g>
   </g>
   <g id="line2d_78">
    <path d="M 508.051874 419.977764
L 544.923488 417.348254
L 618.666717 381.849877
L 692.409945 391.05316
L 766.153173 404.200707
L 839.896401 387.108896
" clip-path="url(#p79f80259de)" style="fill: none; stroke: #c58a32; stroke-width: 2.3; stroke-linecap: square"/>
    <g clip-path="url(#p79f80259de)">
     <use xlink:href="#mcc084539fb" x="508.051874" y="419.977764" style="fill: #c58a32; stroke: #c58a32"/>
     <use xlink:href="#mcc084539fb" x="544.923488" y="417.348254" style="fill: #c58a32; stroke: #c58a32"/>
     <use xlink:href="#mcc084539fb" x="618.666717" y="381.849877" style="fill: #c58a32; stroke: #c58a32"/>
     <use xlink:href="#mcc084539fb" x="692.409945" y="391.05316" style="fill: #c58a32; stroke: #c58a32"/>
     <use xlink:href="#mcc084539fb" x="766.153173" y="404.200707" style="fill: #c58a32; stroke: #c58a32"/>
     <use xlink:href="#mcc084539fb" x="839.896401" y="387.108896" style="fill: #c58a32; stroke: #c58a32"/>
    </g>
   </g>
   <g id="line2d_79">
    <path d="M 508.051874 426.551537
L 544.923488 388.42365
L 618.666717 381.849877
L 692.409945 377.905613
L 766.153173 377.905613
L 839.896401 377.905613
" clip-path="url(#p79f80259de)" style="fill: none; stroke: #3c8590; stroke-width: 2.3; stroke-linecap: square"/>
    <g clip-path="url(#p79f80259de)">
     <use xlink:href="#m7205d47fc9" x="508.051874" y="426.551537" style="fill: #3c8590; stroke: #3c8590"/>
     <use xlink:href="#m7205d47fc9" x="544.923488" y="388.42365" style="fill: #3c8590; stroke: #3c8590"/>
     <use xlink:href="#m7205d47fc9" x="618.666717" y="381.849877" style="fill: #3c8590; stroke: #3c8590"/>
     <use xlink:href="#m7205d47fc9" x="692.409945" y="377.905613" style="fill: #3c8590; stroke: #3c8590"/>
     <use xlink:href="#m7205d47fc9" x="766.153173" y="377.905613" style="fill: #3c8590; stroke: #3c8590"/>
     <use xlink:href="#m7205d47fc9" x="839.896401" y="377.905613" style="fill: #3c8590; stroke: #3c8590"/>
    </g>
   </g>
   <g id="line2d_80">
    <path d="M 508.051874 409.459726
L 544.923488 406.830216
L 618.666717 370.017084
L 692.409945 375.276103
L 766.153173 383.164631
L 839.896401 373.961348
" clip-path="url(#p79f80259de)" style="fill: none; stroke: #325578; stroke-width: 2.3; stroke-linecap: square"/>
    <g clip-path="url(#p79f80259de)">
     <use xlink:href="#m72b32fb57e" x="508.051874" y="409.459726" style="fill: #325578; stroke: #325578"/>
     <use xlink:href="#m72b32fb57e" x="544.923488" y="406.830216" style="fill: #325578; stroke: #325578"/>
     <use xlink:href="#m72b32fb57e" x="618.666717" y="370.017084" style="fill: #325578; stroke: #325578"/>
     <use xlink:href="#m72b32fb57e" x="692.409945" y="375.276103" style="fill: #325578; stroke: #325578"/>
     <use xlink:href="#m72b32fb57e" x="766.153173" y="383.164631" style="fill: #325578; stroke: #325578"/>
     <use xlink:href="#m72b32fb57e" x="839.896401" y="373.961348" style="fill: #325578; stroke: #325578"/>
    </g>
   </g>
  </g>
  <g id="text_39">
   <text style="font-weight: 700; font-size: 19px; font-family: 'DejaVu Sans'; text-anchor: start; fill: #20343f" x="59.693047" y="21.637031" transform="rotate(-0 59.693047 21.637031)">Do whole-profile relationships survive?</text>
  </g>
  <g id="text_40">
   <text style="font-size: 9px; font-family: 'DejaVu Sans'; text-anchor: end; fill: #586c74" x="854.645047" y="559.224" transform="rotate(-0 854.645047 559.224)">Vertical scales are zoomed · lines: five-seed means · shading: seed range</text>
  </g>
  <g id="legend_1">
   <g id="text_41">
    <text style="font-size: 11px; font-family: 'DejaVu Sans'; text-anchor: start; fill: #20343f" x="185.436203" y="66.786281" transform="rotate(-0 185.436203 66.786281)">Dimensions</text>
   </g>
   <g id="line2d_81">
    <path d="M 65.201047 79.437141
L 76.201047 79.437141
L 87.201047 79.437141
" style="fill: none; stroke: #b65b43; stroke-width: 2.3; stroke-linecap: square"/>
    <g>
     <use xlink:href="#mfa7e0ecd04" x="76.201047" y="79.437141" style="fill: #b65b43; stroke: #b65b43"/>
    </g>
   </g>
   <g id="text_42">
    <text style="font-size: 11px; font-family: 'DejaVu Sans'; text-anchor: start; fill: #20343f" x="96.001047" y="83.287141" transform="rotate(-0 96.001047 83.287141)">512</text>
   </g>
   <g id="line2d_82">
    <path d="M 138.997297 79.437141
L 149.997297 79.437141
L 160.997297 79.437141
" style="fill: none; stroke: #c58a32; stroke-width: 2.3; stroke-linecap: square"/>
    <g>
     <use xlink:href="#mcc084539fb" x="149.997297" y="79.437141" style="fill: #c58a32; stroke: #c58a32"/>
    </g>
   </g>
   <g id="text_43">
    <text style="font-size: 11px; font-family: 'DejaVu Sans'; text-anchor: start; fill: #20343f" x="169.797297" y="83.287141" transform="rotate(-0 169.797297 83.287141)">2,048</text>
   </g>
   <g id="line2d_83">
    <path d="M 223.288234 79.437141
L 234.288234 79.437141
L 245.288234 79.437141
" style="fill: none; stroke: #3c8590; stroke-width: 2.3; stroke-linecap: square"/>
    <g>
     <use xlink:href="#m7205d47fc9" x="234.288234" y="79.437141" style="fill: #3c8590; stroke: #3c8590"/>
    </g>
   </g>
   <g id="text_44">
    <text style="font-size: 11px; font-family: 'DejaVu Sans'; text-anchor: start; fill: #20343f" x="254.088234" y="83.287141" transform="rotate(-0 254.088234 83.287141)">4,096</text>
   </g>
   <g id="line2d_84">
    <path d="M 307.579172 79.437141
L 318.579172 79.437141
L 329.579172 79.437141
" style="fill: none; stroke: #325578; stroke-width: 2.3; stroke-linecap: square"/>
    <g>
     <use xlink:href="#m72b32fb57e" x="318.579172" y="79.437141" style="fill: #325578; stroke: #325578"/>
    </g>
   </g>
   <g id="text_45">
    <text style="font-size: 11px; font-family: 'DejaVu Sans'; text-anchor: start; fill: #20343f" x="338.379172" y="83.287141" transform="rotate(-0 338.379172 83.287141)">8,192</text>
   </g>
  </g>
 </g>
 <defs>
  <clipPath id="p37515a360e">
   <rect x="59.693047" y="131.184" width="361.341818" height="158.953846"/>
  </clipPath>
  <clipPath id="p402c4709bd">
   <rect x="493.303229" y="131.184" width="361.341818" height="158.953846"/>
  </clipPath>
  <clipPath id="pf03879bf5d">
   <rect x="59.693047" y="344.182154" width="361.341818" height="158.953846"/>
  </clipPath>
  <clipPath id="p79f80259de">
   <rect x="493.303229" y="344.182154" width="361.341818" height="158.953846"/>
  </clipPath>
 </defs>
</svg>
